<svg width="733" height="432" viewBox="0 0 733 432" fill="none" xmlns="http://www.w3.org/2000/svg">
<mask id="mask0_111_8420" style="mask-type:alpha" maskUnits="userSpaceOnUse" x="0" y="0" width="733" height="432">
<path d="M473.097 318.568C488.697 349.367 217.827 373.068 103.994 379.068C103.994 379.068 152.793 424.967 201.993 430.568C263.493 437.568 690.494 391.568 690.494 335.068C690.494 243.068 495.701 274.067 430.597 224.567C365.493 175.067 673.507 168.433 721.5 103.5C769.493 38.5676 639.385 13.5123 639.493 0.0673828H8.49335C-72.0342 12.3977 473.097 49.0674 473.097 89.0674C473.097 129.067 151.097 136.067 151.097 215.567C151.097 290.716 453.597 280.068 473.097 318.568Z" fill="#FFC598"/>
</mask>
<g mask="url(#mask0_111_8420)">
<path d="M473.097 318.567C488.697 349.367 217.827 373.067 103.994 379.067C103.994 379.067 152.793 424.967 201.993 430.567C263.493 437.567 690.494 391.567 690.494 335.067C690.494 278.567 460.597 245.567 430.597 224.567C406.597 207.767 639.493 215.567 657.993 152.067L639.493 0.0673828H8.49335C-72.0342 12.3977 473.097 49.0674 473.097 89.0674C473.097 129.067 151.097 136.067 151.097 215.567C151.097 290.716 453.597 280.067 473.097 318.567Z" fill="#FFC2DF"/>
<path d="M583.214 318.567C598.814 349.367 327.944 373.067 214.111 379.067C214.111 379.067 262.911 424.967 312.111 430.567C373.611 437.567 800.611 391.567 800.611 335.067C800.611 278.567 570.714 245.567 540.714 224.567C516.714 207.767 749.611 215.567 768.111 152.067L749.611 0.0673828H118.611C38.083 12.3977 583.214 49.0674 583.214 89.0674C583.214 129.067 261.215 136.067 261.214 215.567C261.214 290.716 563.714 280.067 583.214 318.567Z" fill="#FFEEA3"/>
<path d="M672.214 317.567C687.814 348.367 344.326 401.567 230.493 407.567C230.493 407.567 227.293 453.467 276.493 459.067C337.993 466.067 889.611 390.567 889.611 334.067C889.611 277.567 659.714 244.567 629.714 223.567C605.714 206.767 838.611 214.567 857.111 151.067L838.611 -0.932617H207.611C127.083 11.3977 672.214 48.0674 672.214 88.0674C672.214 128.067 350.215 135.067 350.214 214.567C350.214 289.716 652.714 279.067 672.214 317.567Z" fill="#B3FFC7"/>
</g>
</svg>
