<?xml version="1.0" encoding="UTF-8"?>
<!DOCTYPE svg PUBLIC "-//W3C//DTD SVG 1.1//EN" "http://www.w3.org/Graphics/SVG/1.1/DTD/svg11.dtd">
<svg version="1.1" id="Layer_1" xmlns="http://www.w3.org/2000/svg" xmlns:xlink="http://www.w3.org/1999/xlink" x="0px" y="0px" width="21px" height="21px" viewBox="0 0 21 21" enable-background="new 0 0 21 21" xml:space="preserve">
  <g id="icon">
    <circle cx="10.5" cy="10.5" r="10" fill="none" stroke="#434A54" stroke-width="1" stroke-linecap="round" stroke-miterlimit="1"/>
    <g>
      <g>
        <path d="M17.2462,7.1235c-0.4561,0.2021,-0.9455,0.3392,-1.4598,0.4004c0.5251,-0.3145,0.9278,-0.8132,1.1176,-1.4064c-0.491,0.2911,-1.0355,0.5026,-1.6147,0.6172c-0.4639,-0.4941,-1.1244,-0.8031,-1.8555,-0.8031c-1.4041,0,-2.5424,1.1384,-2.5424,2.5417c0,0.1991,0.0225,0.3934,0.0658,0.5793c-2.1126,-0.1061,-3.9859,-1.1183,-5.2397,-2.6563c-0.2192,0.3756,-0.3439,0.8124,-0.3439,1.2778c0,0.8821,0.4491,1.6604,1.1306,2.1158c-0.4166,-0.0132,-0.8084,-0.1278,-1.1516,-0.3183c0,0.0108,0,0.0209,0,0.0318c0,1.2313,0.8767,2.259,2.0391,2.4929c-0.213,0.0581,-0.4375,0.0891,-0.6699,0.0891c-0.1642,0,-0.3229,-0.0163,-0.4786,-0.0457c0.3237,1.0099,1.2623,1.7448,2.3744,1.7657c-0.8697,0.6815,-1.9663,1.0881,-3.1573,1.0881c-0.2052,0,-0.4073,-0.0124,-0.6064,-0.0356C5.9791,15.5787,7.3149,16,8.7508,16c4.6759,0,7.2331,-3.8737,7.2331,-7.2331c0,-0.11,-0.0023,-0.22,-0.0077,-0.3292C16.474,8.0808,16.9054,7.6331,17.2462,7.1235z" fill="none" stroke="#808184" stroke-width="0.1069" stroke-linecap="round" stroke-miterlimit="1" stroke-linejoin="round"/>
      </g>
      <g>
        <path d="M17.2462,7.1235c-0.4561,0.2021,-0.9455,0.3392,-1.4598,0.4004c0.5251,-0.3145,0.9278,-0.8132,1.1176,-1.4064c-0.491,0.2911,-1.0355,0.5026,-1.6147,0.6172c-0.4639,-0.4941,-1.1244,-0.8031,-1.8555,-0.8031c-1.4041,0,-2.5424,1.1384,-2.5424,2.5417c0,0.1991,0.0225,0.3934,0.0658,0.5793c-2.1126,-0.1061,-3.9859,-1.1183,-5.2397,-2.6563c-0.2192,0.3756,-0.3439,0.8124,-0.3439,1.2778c0,0.8821,0.4491,1.6604,1.1306,2.1158c-0.4166,-0.0132,-0.8084,-0.1278,-1.1516,-0.3183c0,0.0108,0,0.0209,0,0.0318c0,1.2313,0.8767,2.259,2.0391,2.4929c-0.213,0.0581,-0.4375,0.0891,-0.6699,0.0891c-0.1642,0,-0.3229,-0.0163,-0.4786,-0.0457c0.3237,1.0099,1.2623,1.7448,2.3744,1.7657c-0.8697,0.6815,-1.9663,1.0881,-3.1573,1.0881c-0.2052,0,-0.4073,-0.0124,-0.6064,-0.0356C5.9791,15.5787,7.3149,16,8.7508,16c4.6759,0,7.2331,-3.8737,7.2331,-7.2331c0,-0.11,-0.0023,-0.22,-0.0077,-0.3292C16.474,8.0808,16.9054,7.6331,17.2462,7.1235z" fill="none" stroke="#434A54" stroke-width="1" stroke-linecap="round" stroke-miterlimit="1" stroke-linejoin="round"/>
      </g>
    </g>
  </g>
</svg>
